# xmcd CD database file
#
# Track frame offsets:
#	150
#	14136
#	29642
#	43507
#	58904
#	73354
#	89127
#	101822
#	117422
#	130948
#
# Disc length: 1970 seconds
#
# Revision: 5
# Processed by: cddbd v1.5.2PL0 Copyright (c) Steve Scherf et al.
# Submitted via: CDex 2.21
#
DISCID=a107b00a
DTITLE=Terri Clark - Some Songs
DYEAR=2014
DGENRE=Country
TTITLE0=Here Comes Crazy
TTITLE1=Some Songs
TTITLE2=Longer
TTITLE3=Don't Start
TTITLE4=I Cheated On You
TTITLE5=Feelin' Pretty Good Right Now
TTITLE6=Just Add Water
TTITLE7=Wheels Down
TTITLE8=Bad Car
TTITLE9=Better With My Boots On
EXTD=YEAR: 2014
EXTT0=
EXTT1=
EXTT2=
EXTT3=
EXTT4=
EXTT5=
EXTT6=
EXTT7=
EXTT8=
EXTT9=
PLAYORDER=
